<svg width="18" height="18" viewBox="0 0 18 18" fill="none" xmlns="http://www.w3.org/2000/svg">
<path d="M8.56975 11.2801C10.0688 11.2801 11.284 10.0649 11.284 8.56585C11.284 7.06679 10.0688 5.85156 8.56975 5.85156C7.0707 5.85156 5.85547 7.06679 5.85547 8.56585C5.85547 10.0649 7.0707 11.2801 8.56975 11.2801Z" fill="white"/>
<path d="M11.9628 0.425781H5.17706C2.55845 0.425781 0.427734 2.55717 0.427734 5.17646V11.9622C0.427734 14.5808 2.55913 16.7115 5.17841 16.7115H11.9641C14.5827 16.7115 16.7134 14.5801 16.7134 11.9608V5.1751C16.7134 2.5565 14.5821 0.425781 11.9628 0.425781ZM8.57059 12.6401C6.3252 12.6401 4.49916 10.814 4.49916 8.56864C4.49916 6.32325 6.3252 4.49721 8.57059 4.49721C10.816 4.49721 12.642 6.32325 12.642 8.56864C12.642 10.814 10.816 12.6401 8.57059 12.6401ZM13.3206 4.49721C12.946 4.49721 12.642 4.19321 12.642 3.81864C12.642 3.44407 12.946 3.14007 13.3206 3.14007C13.6952 3.14007 13.9992 3.44407 13.9992 3.81864C13.9992 4.19321 13.6952 4.49721 13.3206 4.49721Z" fill="white"/>
</svg>
