<svg width="24" height="24" viewBox="0 0 24 24" fill="none" xmlns="http://www.w3.org/2000/svg">
<path d="M15.6863 15C15.1302 17.6299 13.8541 20.0534 12.0003 22C9.43256 19.3038 8.00033 15.7233 8.00033 12C8.00033 8.27674 9.43256 4.69615 12.0003 2C10.1522 2.00048 8.34035 2.51311 6.76592 3.48098C5.19149 4.44885 3.91608 5.8341 3.08127 7.48294C2.24645 9.13178 1.8849 10.9797 2.03674 12.8216C2.18859 14.6635 2.84788 16.4273 3.94145 17.9171C5.03501 19.407 6.52006 20.5647 8.23173 21.2616C9.94341 21.9586 11.8147 22.1676 13.638 21.8654C15.4613 21.5632 17.1651 20.7617 18.5604 19.5498C19.9557 18.3379 20.9879 16.763 21.5423 15" stroke="black" stroke-width="1.5" stroke-linecap="round" stroke-linejoin="round"/>
<path d="M2 12H10.5" stroke="black" stroke-width="1.5" stroke-linecap="round" stroke-linejoin="round"/>
<path d="M20 6V4C20 3.46957 19.7893 2.96086 19.4142 2.58579C19.0391 2.21071 18.5304 2 18 2C17.4696 2 16.9609 2.21071 16.5858 2.58579C16.2107 2.96086 16 3.46957 16 4V6" stroke="black" stroke-width="1.5" stroke-linecap="round" stroke-linejoin="round"/>
<path d="M21 6H15C14.4477 6 14 6.44772 14 7V10C14 10.5523 14.4477 11 15 11H21C21.5523 11 22 10.5523 22 10V7C22 6.44772 21.5523 6 21 6Z" stroke="black" stroke-width="1.5" stroke-linecap="round" stroke-linejoin="round"/>
</svg>
