<svg width="36" height="36" viewBox="0 0 36 36" fill="none" xmlns="http://www.w3.org/2000/svg">
<path d="M3.09278 18.5211C2.96777 18.1843 2.96777 17.8138 3.09278 17.4771C4.31033 14.5249 6.37705 12.0006 9.03094 10.2244C11.6848 8.44821 14.8063 7.5 17.9998 7.5C21.1932 7.5 24.3147 8.44821 26.9686 10.2244C29.6225 12.0006 31.6892 14.5249 32.9068 17.4771C33.0318 17.8138 33.0318 18.1843 32.9068 18.5211C31.6892 21.4733 29.6225 23.9975 26.9686 25.7737C24.3147 27.5499 21.1932 28.4982 17.9998 28.4982C14.8063 28.4982 11.6848 27.5499 9.03094 25.7737C6.37705 23.9975 4.31033 21.4733 3.09278 18.5211Z" stroke="#101010" stroke-width="1.5" stroke-linecap="round" stroke-linejoin="round"/>
<path d="M18 22.5C20.4853 22.5 22.5 20.4853 22.5 18C22.5 15.5147 20.4853 13.5 18 13.5C15.5147 13.5 13.5 15.5147 13.5 18C13.5 20.4853 15.5147 22.5 18 22.5Z" stroke="#101010" stroke-width="1.5" stroke-linecap="round" stroke-linejoin="round"/>
</svg>
