<svg width="13" height="21" viewBox="0 0 13 21" fill="none" xmlns="http://www.w3.org/2000/svg">
<path d="M12.0781 9.22656C11.1354 9.61719 10.3828 9.96875 9.82031 10.2812C9.26302 10.5938 8.82812 10.9036 8.51562 11.2109C8.20833 11.5182 7.89844 11.9505 7.58594 12.5078C7.27344 13.0651 6.91667 13.8281 6.51562 14.7969H6.19531C5.78906 13.8281 5.42969 13.0651 5.11719 12.5078C4.80469 11.9505 4.4974 11.5182 4.19531 11.2109C3.88281 10.9036 3.44531 10.5938 2.88281 10.2812C2.32552 9.96875 1.57292 9.61719 0.625 9.22656V8.90625C1.57812 8.51562 2.33333 8.16406 2.89062 7.85156C3.45312 7.53906 3.88802 7.22917 4.19531 6.92188C4.4974 6.61458 4.80469 6.18229 5.11719 5.625C5.42969 5.06771 5.78906 4.30469 6.19531 3.33594H6.51562C6.91667 4.30469 7.27344 5.06771 7.58594 5.625C7.89844 6.18229 8.20833 6.61458 8.51562 6.92188C8.81771 7.22917 9.2474 7.53906 9.80469 7.85156C10.3672 8.16406 11.125 8.51562 12.0781 8.90625V9.22656Z" fill="#EFEFEB"/>
</svg>
