<svg width="24" height="24" viewBox="0 0 24 24" fill="none" xmlns="http://www.w3.org/2000/svg">
<path d="M17.5964 12.7687C17.9715 13.1439 18.4803 13.3546 19.0109 13.3546C19.5414 13.3546 20.0502 13.1439 20.4254 12.7687C20.8005 12.3936 21.0113 11.8848 21.0113 11.3542C21.0113 10.8237 20.8005 10.3149 20.4254 9.93974L18.6574 8.17274C19.0325 8.54776 19.5413 8.75838 20.0717 8.75829C20.3344 8.75824 20.5945 8.70647 20.8371 8.60591C21.0797 8.50536 21.3002 8.35799 21.4859 8.17224C21.6716 7.98648 21.8189 7.76597 21.9193 7.5233C22.0198 7.28062 22.0715 7.02054 22.0714 6.75789C22.0714 6.49523 22.0196 6.23517 21.9191 5.99253C21.8185 5.74989 21.6711 5.52943 21.4854 5.34374L18.6574 2.51574C18.2824 2.14059 17.7737 1.92978 17.2432 1.92969C16.7128 1.92959 16.204 2.14022 15.8289 2.51524C15.4537 2.89026 15.2429 3.39894 15.2428 3.92939C15.2427 4.45983 15.4534 4.96859 15.8284 5.34374L14.0614 3.57574C13.8756 3.38998 13.6551 3.24264 13.4124 3.14211C13.1697 3.04158 12.9096 2.98983 12.6469 2.98983C12.3842 2.98983 12.1241 3.04158 11.8814 3.14211C11.6387 3.24264 11.4181 3.38998 11.2324 3.57574C11.0466 3.76149 10.8993 3.98202 10.7988 4.22472C10.6982 4.46742 10.6465 4.72754 10.6465 4.99024C10.6465 5.25294 10.6982 5.51306 10.7988 5.75576C10.8993 5.99846 11.0466 6.21898 11.2324 6.40474L17.5964 12.7687Z" stroke="#101010" stroke-width="1.5" stroke-linecap="round" stroke-linejoin="round"/>
<path d="M2.5 21.5016L3.9 20.1016" stroke="#101010" stroke-width="1.5" stroke-linecap="round" stroke-linejoin="round"/>
<path d="M20.0996 3.9L21.4996 2.5" stroke="#101010" stroke-width="1.5" stroke-linecap="round" stroke-linejoin="round"/>
<path d="M5.34276 21.4834C5.71778 21.8586 6.22646 22.0694 6.75691 22.0695C7.01956 22.0695 7.27965 22.0178 7.52232 21.9174C7.765 21.8169 7.98551 21.6696 8.17126 21.4839C8.35702 21.2982 8.50438 21.0778 8.60493 20.8351C8.70549 20.5925 8.75727 20.3324 8.75731 20.0698C8.75736 19.8071 8.70567 19.5471 8.6052 19.3044C8.50474 19.0617 8.35745 18.8412 8.17176 18.6554L9.93876 20.4234C10.3139 20.7986 10.8227 21.0093 11.3533 21.0093C11.8838 21.0093 12.3926 20.7986 12.7678 20.4234C13.1429 20.0483 13.3537 19.5395 13.3537 19.0089C13.3537 18.4784 13.1429 17.9696 12.7678 17.5944L6.40376 11.2304C6.21801 11.0447 5.99748 10.8973 5.75478 10.7968C5.51208 10.6963 5.25196 10.6445 4.98926 10.6445C4.72657 10.6445 4.46644 10.6963 4.22374 10.7968C3.98104 10.8973 3.76052 11.0447 3.57476 11.2304C3.38901 11.4162 3.24166 11.6367 3.14113 11.8794C3.0406 12.1221 2.98886 12.3822 2.98886 12.6449C2.98886 12.9076 3.0406 13.1678 3.14113 13.4105C3.24166 13.6532 3.38901 13.8737 3.57476 14.0594L5.34276 15.8264C4.96761 15.4514 4.45886 15.2408 3.92841 15.2409C3.39796 15.241 2.88928 15.4518 2.51426 15.8269C2.13925 16.2021 1.92862 16.7108 1.92871 17.2413C1.9288 17.7717 2.13961 18.2804 2.51476 18.6554L5.34276 21.4834Z" stroke="#101010" stroke-width="1.5" stroke-linecap="round" stroke-linejoin="round"/>
<path d="M9.59961 14.4016L14.3996 9.60156" stroke="#101010" stroke-width="1.5" stroke-linecap="round" stroke-linejoin="round"/>
</svg>
